<svg width="55" height="50" viewBox="0 0 55 50" fill="none" xmlns="http://www.w3.org/2000/svg">
<path d="M35.0508 10.2213H42.3544C43.1635 10.2213 44.5041 11.0394 44.846 11.8165L54.1844 46.5851C54.4362 48.4854 53.1974 49.799 51.3569 50H2.96915C1.1614 49.9018 -0.201437 48.5625 0.0245319 46.7008L9.22017 12.1403C9.48478 11.1901 10.9167 10.2213 11.8557 10.2213H19.1593C18.0294 5.9018 20.6919 1.36027 25.0216 0.267547C31.1497 -1.2798 36.5741 4.12773 35.052 10.2213H35.0508ZM26.7298 2.79075C24.2933 2.9719 21.981 5.01243 21.7304 7.48187C21.6801 7.9774 21.7445 9.74212 22.0184 10.1079C22.3217 10.5123 30.9647 10.074 32.1343 10.1687C33.6412 6.52822 30.6333 2.50091 26.7298 2.79192V2.79075ZM2.79821 47.1963H51.4096L42.3849 13.1652L41.7749 13.0156C32.1683 13.4375 22.1051 12.471 12.5512 13.0156C12.3346 13.0285 11.9095 13.0039 11.796 13.2236L2.79821 47.1963Z" fill="#0F6CF9"/>
<path d="M29.0972 20.7301V33.5612L34.0638 28.6644L37.0354 31.7369L28.2273 40.4494C27.9053 40.6341 26.3107 40.6306 25.9945 40.4494L17.1806 31.6364C18.0774 30.9632 19.048 29.4731 19.9191 28.8888C20.028 28.8163 20.1065 28.7368 20.2517 28.7918L25.1246 33.5612V20.7301H29.0972Z" fill="#0F6CF9"/>
</svg>
