<svg width="56" height="50" viewBox="0 0 56 50" fill="none" xmlns="http://www.w3.org/2000/svg">
<path d="M16.4482 49.9989C16.0444 49.7778 15.6204 49.5043 15.5926 48.9884C15.8554 44.5877 15.2508 39.7982 15.5915 35.4435C15.74 33.5444 16.8947 31.846 18.547 30.9371L24.6439 28.773L24.6044 27.1847C22.2844 25.543 22.231 22.5897 22.4137 19.9856C22.7373 15.3648 28.3428 13.1154 31.8014 16.151C33.8608 17.9593 33.9238 20.6115 33.723 23.1921C33.6002 24.7612 32.736 26.3067 31.4981 27.2563L31.4917 28.7741C34.6619 30.074 39.148 30.3699 40.2984 34.1981C40.4095 34.5666 40.5163 35.06 40.5462 35.4435C40.8859 39.7982 40.2824 44.5877 40.5451 48.9884C40.5184 49.5043 40.0933 49.7778 39.6896 49.9989H39.1566C38.6342 49.7329 38.3726 49.4872 38.3042 48.8795C38.0265 44.6091 38.6727 39.873 38.3074 35.6571C38.2049 34.4704 37.47 33.3831 36.4104 32.864L29.2422 30.3838V28.2518C28.4699 28.4109 27.6656 28.4099 26.8966 28.2518V30.3838L19.7295 32.864C18.6517 33.4076 17.9361 34.4448 17.8314 35.6571C17.4693 39.8762 18.1102 44.6059 17.8346 48.8795C17.7652 49.4872 17.5046 49.7329 16.9822 49.9989H16.4492H16.4482ZM27.2939 17.0835C24.52 17.5513 24.4132 20.9928 24.6685 23.1761C25.1246 27.0811 31.0837 27.0833 31.4789 23.0799C31.7726 20.1052 31.2268 16.4202 27.2939 17.0835Z" fill="#0F6CF9"/>
<path d="M0.777701 38.6982C1.00521 36.5747 2.57002 34.8316 4.4809 34.0326C6.17815 33.3234 8.10399 32.8662 9.82474 32.1805L9.81726 30.6712C7.61478 28.8511 7.39795 26.3111 7.59663 23.6098C7.98436 18.3397 14.4358 16.2173 17.7257 20.3114C19.1217 22.0482 19.2478 24.9759 18.8739 27.1047C18.3292 30.2087 15.2882 32.3247 12.1842 31.6624V33.6342C12.102 33.7463 11.9813 33.7869 11.8649 33.8478C9.05248 35.3272 3.32412 35.3154 3.01222 39.2803C2.76442 42.4324 3.2109 45.8995 3.01009 49.0857C2.93639 49.5471 2.52836 49.7928 2.16306 49.9979H1.63007C1.2135 49.7971 0.977441 49.561 0.777701 49.1455C1.03832 45.8215 0.428423 41.9581 0.777701 38.6982ZM10.8363 28.5339C12.3519 30.0485 14.972 29.8231 16.1502 28.0062C16.8445 26.9349 16.8989 23.4261 16.3617 22.3163C15.1793 19.8767 11.5092 19.7881 10.2808 22.2437C9.51498 23.7764 9.55023 27.2479 10.8363 28.5339Z" fill="#0F6CF9"/>
<path d="M53.9737 49.9989C53.6084 49.7938 53.2004 49.5482 53.1267 49.0867C52.9258 45.9005 53.3723 42.4334 53.1245 39.2813C53.0177 37.9312 52.2956 36.7979 51.0609 36.2276L43.9525 33.6341V31.6624C41.7223 32.1462 39.3542 31.1465 38.1098 29.2431C36.6818 27.0587 36.7288 22.4519 38.3651 20.3712C41.6048 16.2514 48.1086 18.2755 48.5348 23.5083C48.7569 26.2277 48.5284 28.8286 46.3195 30.6712L46.2928 32.1249C48.9599 33.3959 52.8083 33.6149 54.4874 36.3183C56.299 39.2343 54.9168 45.3472 55.3633 48.7759C55.374 49.3933 55.0247 49.7468 54.5067 49.9978H53.9737V49.9989ZM45.3005 28.5338C46.5865 27.2478 46.6217 23.7764 45.8559 22.2436C44.6286 19.7869 40.9575 19.8767 39.7751 22.3163C39.2378 23.426 39.2912 26.9348 39.9865 28.0062C41.1647 29.8231 43.7848 30.0484 45.3005 28.5338Z" fill="#0F6CF9"/>
<path d="M21.5656 49.9989H20.9258C20.3159 49.6731 20.1428 49.3527 20.0745 48.6648C20.2507 45.8706 19.8352 42.7858 20.0691 40.0269C20.2283 38.1523 22.2631 38.1523 22.4222 40.0269C22.6561 42.7858 22.2406 45.8706 22.4169 48.6648C22.3485 49.3527 22.1755 49.6731 21.5656 49.9989Z" fill="#0F6CF9"/>
<path d="M35.2109 49.9989H34.5711C33.9612 49.6731 33.7882 49.3527 33.7198 48.6648C33.8961 45.8706 33.4806 42.7858 33.7145 40.0269C33.8736 38.1523 35.9084 38.1523 36.0676 40.0269C36.3015 42.7858 35.886 45.8706 36.0622 48.6648C35.9939 49.3527 35.8208 49.6731 35.2109 49.9989Z" fill="#0F6CF9"/>
<path d="M6.74742 49.999H6.21443C5.84913 49.7939 5.4411 49.5482 5.3674 49.0868C5.49131 47.1673 5.18262 45.0076 5.35672 43.1181C5.48703 41.7007 7.42996 41.6868 7.60299 43.1202C7.73865 44.2471 7.74719 47.8712 7.59125 48.9757C7.51327 49.5258 7.20992 49.7565 6.74849 49.9979L6.74742 49.999Z" fill="#0F6CF9"/>
<path d="M49.9222 49.9989H49.3892C48.9278 49.7565 48.6234 49.5268 48.5465 48.9767C48.3905 47.8723 48.398 44.2471 48.5347 43.1213C48.7077 41.6878 50.6507 41.7017 50.781 43.1191C50.9551 45.0086 50.6464 47.1684 50.7703 49.0878C50.6966 49.5492 50.2886 49.7949 49.9233 50L49.9222 49.9989Z" fill="#0F6CF9"/>
<path d="M14.4231 15.5647L7.42149 17.9979C6.30316 18.4775 5.46468 19.5007 5.35787 20.7312C5.08977 23.8256 5.70928 27.4935 5.34932 30.5313C5.14531 32.2584 3.20025 32.2617 3.01653 30.4352C2.77834 28.0682 2.86272 23.7999 3.01119 21.371C3.1682 18.7926 4.21817 16.9586 6.61185 15.9108C8.36251 15.1438 10.3866 14.6792 12.1682 13.9518C12.2131 13.8813 12.2056 12.7 12.1608 12.5494C12.0967 12.3325 11.3287 11.7194 11.1193 11.4588C9.86216 9.90148 9.71583 7.75134 9.83866 5.81162C10.3364 -2.05514 20.7293 -1.66634 21.2484 5.3801C21.4396 7.97885 21.2484 10.757 19.0224 12.4372L19 13.8952C19.0481 14.0992 21.8134 14.5767 22.1905 15.2037C22.7 16.0507 22.0153 17.1818 20.9867 16.9415L16.6597 15.5647V13.5395H14.4209V15.5647H14.4231ZM14.9283 2.26544C13.5985 2.47479 12.3007 3.82063 12.18 5.16754C11.9151 8.12412 12.2206 11.7803 16.1705 11.29C19.0139 10.9376 19.2286 7.64453 18.9946 5.39826C18.781 3.356 16.9748 1.94286 14.9294 2.26544H14.9283Z" fill="#0F6CF9"/>
<path d="M39.4749 15.5646L35.1479 16.9415C34.1193 17.1807 33.4347 16.0506 33.9441 15.2036C34.3394 14.5457 37.0716 14.1558 37.1336 13.8952L37.1111 12.4372C34.883 10.7752 34.695 7.96706 34.8852 5.38005C35.4032 -1.65036 45.8303 -2.11393 46.3002 5.91305C46.4124 7.825 46.2522 9.92493 45.0142 11.4588C44.8038 11.7194 44.0369 12.3325 43.9728 12.5493C43.8638 12.9168 44.0059 13.4957 43.9461 13.8962C45.653 14.6685 47.5916 15.0936 49.3092 15.8039C51.8096 16.8389 52.96 18.69 53.1234 21.371C53.2751 23.8533 53.3317 27.8887 53.1234 30.3336C53.0604 31.0664 52.8436 31.7521 52.0008 31.7777C51.1581 31.8034 50.8729 31.265 50.7864 30.5312C50.4211 27.4593 51.11 23.7113 50.7757 20.6286C50.6529 19.4964 49.7685 18.4027 48.7153 17.9989L41.7137 15.5657V13.5405H39.4749V15.5657V15.5646ZM38.1269 3.23632C36.8409 4.52235 36.8057 7.99376 37.5715 9.52652C38.7988 11.9832 42.4699 11.8935 43.6524 9.45389C44.1896 8.34411 44.1362 4.83531 43.4409 3.76398C42.2627 1.94709 39.6426 1.72172 38.1269 3.23632Z" fill="#0F6CF9"/>
</svg>
