<svg width="55" height="50" viewBox="0 0 55 50" fill="none" xmlns="http://www.w3.org/2000/svg">
<path d="M35.9007 30.6615C36.0545 34.2928 33.3465 37.7941 29.8465 38.6707C28.4742 39.0138 27.3024 38.9217 25.9339 38.9217C21.7528 43.4889 16.2813 48.3259 10.0442 49.6452C2.84979 51.1676 -1.86366 46.7392 2.12202 39.8311C5.61328 33.7807 13.4547 30.3059 19.7952 28.1478C20.0967 27.6887 20.2203 27.1501 20.4915 26.6683C20.8156 26.0931 21.4576 25.6303 21.3908 24.9378C21.2747 23.7358 20.6453 21.9385 20.4234 20.5977C20.2291 19.4234 20.1118 18.2252 20.0071 17.0409C19.823 16.8201 17.3672 18.755 17.1049 18.9933C16.5373 19.5092 14.5684 22.0053 14.2998 22.115C13.1987 22.5666 12.3814 21.6736 12.761 20.5763C12.9893 19.9179 15.2748 17.5895 15.9054 17.0358C17.1074 15.9801 18.4583 15.212 19.8192 14.3909L20.0071 10.3548C18.3372 10.9236 16.7505 11.7725 15.3012 12.7739C13.3172 14.1449 11.8163 15.8716 10.1375 17.5731C9.23444 17.9603 8.41082 17.3083 8.5319 16.356C8.60884 15.7531 10.8111 13.508 11.3648 12.9997C14.0046 10.5742 17.2121 8.79581 20.6138 7.67957C22.3809 -0.766036 30.6688 -3.42988 34.232 5.78006C36.5666 11.8166 35.4378 19.0514 33.9986 25.1749L35.5361 28.062C41.883 30.4597 49.0647 33.3304 52.9306 39.2989C56.6993 45.1159 54.3041 50.4903 47.058 49.9643C42.4329 49.6288 37.3764 46.347 33.9494 43.3968C33.4575 42.973 31.6249 41.4077 31.5126 40.9133C31.2578 39.7933 32.1849 39.1614 33.1737 39.6318C36.747 42.8469 40.7503 46.3293 45.5899 47.3964C53.1021 49.0512 54.2512 44.0691 49.9048 39.0453C46.3366 34.9222 40.942 32.4677 35.9019 30.6615H35.9007ZM22.1627 15.9158C22.4074 18.4775 22.6672 21.0732 23.4076 23.5428C24.1088 23.4066 24.6966 22.9866 25.4319 22.7797C27.2621 22.2626 28.956 22.3749 30.7256 23.0333C31.0245 23.1443 31.857 23.7635 32.0512 23.4722C32.3022 23.0963 32.7563 20.1361 32.8508 19.4789C33.508 14.9471 33.7073 9.2978 31.4243 5.18095C29.3091 1.36807 26.3085 1.19527 24.0672 5.0195C22.6218 7.48533 22.1047 10.6764 22.1513 13.508C22.9838 13.3251 23.8036 13.0539 24.6474 12.9152C25.3777 12.7954 27.0956 12.5318 27.7565 12.6352C29.0392 12.8357 29.2158 14.2446 28.116 14.8702C26.0853 14.9257 24.0685 15.2259 22.1614 15.9171L22.1627 15.9158ZM26.9165 24.7675C18.3864 25.7955 21.4021 39.4868 29.931 36.2327C36.2563 33.8198 33.9696 23.9174 26.9165 24.7675ZM19.5026 30.6615C14.4814 32.4387 8.65425 35.0445 5.25507 39.3052C0.214952 45.6217 3.95972 49.2971 11.1806 46.9965C14.267 46.0127 17.2953 43.8937 19.7587 41.8265C20.2985 41.3737 23.7557 38.2999 23.6674 37.9165C21.1435 36.4446 19.3765 33.6357 19.5039 30.6615H19.5026Z" fill="#0F6CF9"/>
<path d="M27.0376 27.5373C31.5858 26.7578 32.3199 33.5183 28.0012 33.927C23.8932 34.3155 23.2802 28.1806 27.0376 27.5373ZM27.4147 29.8026C26.33 30.0384 26.7336 31.8534 27.8599 31.6504C28.9863 31.4473 28.8702 29.486 27.4147 29.8026Z" fill="#0F6CF9"/>
</svg>
