<svg width="50" height="50" viewBox="0 0 50 50" fill="none" xmlns="http://www.w3.org/2000/svg">
<path d="M0.748946 16.5543C0.450294 16.4902 0.139551 16.0683 0.092395 15.7624C-0.0297259 14.9837 -0.0273077 11.9754 0.0790947 11.1774C0.274972 9.70347 2.95921 10.8316 3.94222 10.2125L13.3588 1.77045C13.6635 1.39683 13.3056 0.254216 14.1738 0.0547113C15.3394 -0.213713 15.5159 0.544404 15.7311 1.48026L34.4749 10.3431C35.5945 10.6309 38.0841 10.1073 38.9413 10.4628C39.0949 10.5269 39.3887 10.8799 39.4238 11.0661C39.2424 12.4506 39.6898 14.575 39.4008 15.8651C39.1989 16.7708 38.0623 16.5386 37.3755 16.5543V26.2684C37.3755 26.8536 36.1072 27.1994 35.603 26.6529C35.5594 26.6057 35.3237 26.1765 35.3237 26.1475V16.5531H24.9458V21.0788C24.9458 21.2917 23.9966 24.8984 23.8673 25.1898C23.7379 25.4812 23.2518 25.9661 22.9544 25.9661H18.6705V38.3958H22.1092C22.5191 38.3958 22.8649 39.1539 22.8988 39.536C23.1648 42.4488 22.6872 45.7594 22.8964 48.7156C22.7863 49.6418 22.218 49.793 21.3898 49.8631L1.35471 49.8571C0.430948 49.8413 -0.263086 49.134 0.174615 48.1981C0.247162 48.0422 0.773128 47.6867 0.869858 47.6867H20.8421V40.4465H0.748946C0.351146 40.4465 0.110532 39.7718 0.0790947 39.426C-0.136128 37.0452 0.256835 34.3489 0.0790947 31.9319C-0.0188439 31.7384 0.57846 31.1532 0.628034 31.1532H3.10189V16.5519C2.41874 16.4528 1.3789 16.6861 0.748946 16.5519V16.5543ZM29.5308 10.3999L15.6525 3.76307V9.31413H18.0055C18.4069 9.31413 18.6511 10.1388 18.8506 10.3999H29.5308ZM13.481 9.31413V4.48734L6.96502 10.3999H10.284C10.4823 10.1375 10.7278 9.31413 11.1292 9.31413H13.4822H13.481ZM16.6186 11.3648H12.5161V16.5543H16.6186V11.3648ZM10.4642 12.4518H2.13701V14.5037H10.4642V12.4518ZM37.3743 12.4518H18.6693V14.5037H37.3743V12.4518ZM12.5149 38.397V18.7876C11.9393 18.3148 11.1522 18.9641 10.6371 18.2519C10.301 17.7864 10.5404 17.2931 10.4437 16.755L10.2816 16.5555H5.27346V31.1568H7.62641C7.76787 31.1568 8.29021 31.678 8.29021 31.8206V38.397H12.5137H12.5149ZM22.8927 16.5543H18.6693V19.692H22.8927V16.5543ZM16.6186 18.6062H14.5667V38.397H16.6186V18.6062ZM22.5312 21.7439H18.6693V23.7957H21.9883C22.1902 23.595 22.6074 21.82 22.5312 21.7439ZM6.23955 33.2075H2.13701V38.397H6.23955V33.2075Z" fill="#0F6CF9"/>
<path d="M46.7933 38.1492C48.2975 38.5095 50.0362 37.7925 49.7726 39.9955C49.5223 42.0836 48.4656 46.7641 47.8151 48.7773C47.5357 49.6418 47.277 49.7881 46.3689 49.8655C41.3148 50.2935 35.6683 49.533 30.5525 49.8655C30.0132 49.8196 29.5417 49.7374 29.2382 49.2489L26.9977 39.3123C27.358 37.9642 29.0701 38.4345 30.1281 38.1492L30.1317 30.007C30.1946 29.1799 30.9321 29.0312 31.6383 28.9792C36.0806 28.6503 40.9207 29.2392 45.4053 28.9792C46.196 29.0481 46.6894 29.2803 46.7909 30.1279L46.7946 38.1492H46.7933ZM44.6145 31.1556H32.1848V37.9134L38.5145 37.3052L44.6145 37.9134V31.1556ZM37.3743 47.6891V39.4828L29.289 40.3292L30.9781 47.6891H37.3743ZM39.4262 39.6642V47.6891H45.9421L47.5116 40.328L39.425 39.6642H39.4262Z" fill="#0F6CF9"/>
<path d="M35.0468 33.2329L41.7719 33.2148C42.854 33.384 42.854 35.0828 41.7719 35.2521C40.7574 35.4105 36.164 35.4105 35.1483 35.2521C34.1327 35.0937 33.9888 33.517 35.0456 33.2329H35.0468Z" fill="#0F6CF9"/>
</svg>
