<svg width="43" height="52" viewBox="0 0 43 52" fill="none" xmlns="http://www.w3.org/2000/svg">
<path d="M20.8347 22.0324L3.44593 28.1824L7.99872 43.5653L6.21512 44.0908L1.33337 27.4847L1.48244 26.9822L7.86508 24.5792L7.87921 14.6538C7.91262 14.1617 8.28142 13.6361 8.83654 13.6875H34.6305C35.1368 13.6335 35.4825 14.0769 35.5776 14.5356L35.6033 24.578L41.7058 26.7471L42.1337 27.4834C40.7896 32.2328 39.4159 37.031 37.9279 41.7508C37.8071 42.1325 37.2455 44.1576 37.0502 44.2065L35.3309 43.6424L40.0211 28.1811L22.6324 22.0298V45.6277H20.8372V22.0298L20.8347 22.0324ZM33.6604 15.4904H9.80544V23.8262L21.0853 19.9082L21.7984 19.8414L33.6591 23.8262V15.4904H33.6604Z" fill="#0F6CF9"/>
<path d="M2.45777 46.8111C3.35214 46.5463 3.99465 47.451 4.6847 47.8648C7.67877 49.6535 10.4698 49.4273 13.4819 47.8326C14.037 47.5384 14.7746 46.8033 15.3863 46.7764C16.0378 46.7468 16.6867 47.5242 17.2534 47.8648C19.79 49.3914 22.4101 49.498 25.1125 48.3055C25.8051 47.9997 27.4576 46.7982 27.9549 46.7764C28.6064 46.7468 29.2554 47.5242 29.822 47.8648C32.7801 49.6445 35.5545 49.4325 38.5357 47.8776C39.2926 47.4831 40.823 45.9848 41.4514 47.2647C41.6159 47.6001 41.6506 47.7825 41.4668 48.1128C41.179 48.6306 39.1962 49.6972 38.5781 49.9735C34.9081 51.6144 31.1777 51.2983 27.9511 48.8748C24.1282 51.5669 19.1436 51.8072 15.3824 48.8748C12.3806 50.9012 8.87896 51.662 5.40944 50.3461C4.65771 50.0608 1.99646 48.6229 1.87438 47.8493C1.82169 47.5165 2.12496 46.9113 2.45649 46.8136L2.45777 46.8111Z" fill="#0F6CF9"/>
<path d="M31.2227 10.8733H29.299V7.09021L29.1063 6.89746H14.357L14.1642 7.09021V10.8733H12.2405V6.06349C12.2405 5.87845 12.6428 5.10102 12.8175 5.10102H20.6407L20.8334 4.90827V1.57624C20.8334 1.40533 21.5183 0.982567 21.7856 1.00056C22.0002 1.01469 22.6286 1.44517 22.6286 1.57624V4.91084L22.8213 5.10359H30.6444C30.8192 5.10359 31.2214 5.88102 31.2214 6.06606V10.8759L31.2227 10.8733Z" fill="#0F6CF9"/>
<path d="M26.1854 26.6724C26.4386 26.5966 26.6288 26.6596 26.869 26.7071C27.3227 26.7958 29.475 27.5925 29.858 27.8225C30.7716 28.3712 30.4812 29.7732 29.1397 29.5701C28.8544 29.5264 26.1931 28.5228 25.9734 28.3712C25.3437 27.9369 25.5005 26.8767 26.1854 26.6724Z" fill="#0F6CF9"/>
<path d="M16.6982 26.6777C17.8046 26.5209 18.3122 27.7198 17.5682 28.3199C17.3909 28.4625 14.6075 29.5278 14.3261 29.5702C13.0938 29.7565 12.6942 28.5127 13.4587 27.9293C13.6875 27.7545 16.3757 26.7239 16.6995 26.6777H16.6982Z" fill="#0F6CF9"/>
<path d="M20.8347 22.0324L3.44593 28.1824L7.99872 43.5653L6.21512 44.0908L1.33337 27.4847L1.48244 26.9822L7.86508 24.5792L7.87921 14.6538C7.91262 14.1617 8.28142 13.6361 8.83654 13.6875H34.6305C35.1368 13.6335 35.4825 14.0769 35.5776 14.5356L35.6033 24.578L41.7058 26.7471L42.1337 27.4834C40.7896 32.2328 39.4159 37.031 37.9279 41.7508C37.8071 42.1325 37.2455 44.1576 37.0502 44.2065L35.3309 43.6424L40.0211 28.1811L22.6324 22.0298V45.6277H20.8372V22.0298L20.8347 22.0324ZM33.6604 15.4904H9.80544V23.8262L21.0853 19.9082L21.7984 19.8414L33.6591 23.8262V15.4904H33.6604Z" stroke="#0F6CF9"/>
<path d="M2.45777 46.8111C3.35214 46.5463 3.99465 47.451 4.6847 47.8648C7.67877 49.6535 10.4698 49.4273 13.4819 47.8326C14.037 47.5384 14.7746 46.8033 15.3863 46.7764C16.0378 46.7468 16.6867 47.5242 17.2534 47.8648C19.79 49.3914 22.4101 49.498 25.1125 48.3055C25.8051 47.9997 27.4576 46.7982 27.9549 46.7764C28.6064 46.7468 29.2554 47.5242 29.822 47.8648C32.7801 49.6445 35.5545 49.4325 38.5357 47.8776C39.2926 47.4831 40.823 45.9848 41.4514 47.2647C41.6159 47.6001 41.6506 47.7825 41.4668 48.1128C41.179 48.6306 39.1962 49.6972 38.5781 49.9735C34.9081 51.6144 31.1777 51.2983 27.9511 48.8748C24.1282 51.5669 19.1436 51.8072 15.3824 48.8748C12.3806 50.9012 8.87896 51.662 5.40944 50.3461C4.65771 50.0608 1.99646 48.6229 1.87438 47.8493C1.82169 47.5165 2.12496 46.9113 2.45649 46.8136L2.45777 46.8111Z" stroke="#0F6CF9"/>
<path d="M31.2227 10.8733H29.299V7.09021L29.1063 6.89746H14.357L14.1642 7.09021V10.8733H12.2405V6.06349C12.2405 5.87845 12.6428 5.10102 12.8175 5.10102H20.6407L20.8334 4.90827V1.57624C20.8334 1.40533 21.5183 0.982567 21.7856 1.00056C22.0002 1.01469 22.6286 1.44517 22.6286 1.57624V4.91084L22.8213 5.10359H30.6444C30.8192 5.10359 31.2214 5.88102 31.2214 6.06606V10.8759L31.2227 10.8733Z" stroke="#0F6CF9"/>
<path d="M26.1854 26.6724C26.4386 26.5966 26.6288 26.6596 26.869 26.7071C27.3227 26.7958 29.475 27.5925 29.858 27.8225C30.7716 28.3712 30.4812 29.7732 29.1397 29.5701C28.8544 29.5264 26.1931 28.5228 25.9734 28.3712C25.3437 27.9369 25.5005 26.8767 26.1854 26.6724Z" stroke="#0F6CF9"/>
<path d="M16.6982 26.6777C17.8046 26.5209 18.3122 27.7198 17.5682 28.3199C17.3909 28.4625 14.6075 29.5278 14.3261 29.5702C13.0938 29.7565 12.6942 28.5127 13.4587 27.9293C13.6875 27.7545 16.3757 26.7239 16.6995 26.6777H16.6982Z" stroke="#0F6CF9"/>
</svg>
