<svg width="46" height="52" viewBox="0 0 46 52" fill="none" xmlns="http://www.w3.org/2000/svg">
<path d="M2.60602 38.9558L44.0638 38.9288C45.9681 39.5064 45.5395 40.7673 45.1131 42.2462C44.3045 45.0583 43.1894 47.8478 42.2837 50.6211L41.8843 50.9752L5.27243 51C4.92591 50.9892 4.63768 50.783 4.52001 50.4602L1.3689 41.0069C1.18322 40.0774 1.74457 39.2603 2.60602 38.9558ZM43.6849 40.655H3.06698L5.97196 49.2253L40.8155 49.2598L43.6849 40.655Z" fill="#0F6CF9"/>
<path d="M27.3086 2.73047C27.952 3.54334 28.4788 4.54945 28.5878 5.59874C28.7131 6.79809 28.7195 9.70415 28.4615 10.8322C28.0168 12.7711 26.2842 14.4378 24.2968 14.6937L24.2849 15.5929C26.1039 16.4166 27.6314 17.2716 28.4777 19.1758C31.5306 26.0351 21.979 31.0397 18.0172 25.111C17.485 24.3143 16.0957 21.0337 17.675 20.8329C18.9467 20.671 18.6347 22.2654 18.9283 23.1236C20.1082 26.5727 24.9294 27.0239 26.7181 23.8491C28.4648 20.7498 26.0521 17.0503 22.5274 17.3957C21.9218 17.4551 20.6588 18.1017 20.4407 17.0848C20.1762 15.8542 21.734 15.8304 22.5566 15.6469L22.5739 14.7509C20.6113 14.3644 18.9121 12.8909 18.4188 10.9186C18.137 9.79375 18.1457 6.80456 18.2709 5.59766C18.3799 4.54837 18.9067 3.54226 19.5501 2.72939H14.1094C13.5189 2.72939 13.1151 1.1846 14.2238 1.01187L31.5684 1C33.0095 1.12954 32.4439 2.72939 31.8868 2.72939H27.3075L27.3086 2.73047ZM22.9754 2.76069C21.7135 2.90967 20.5789 3.82294 20.1773 5.02552C19.8621 5.96794 19.8535 9.84664 20.1762 10.7793C21.3702 14.237 26.5789 13.6422 26.8822 9.79051C27.11 6.89956 27.1499 2.26951 22.9754 2.76069Z" fill="#0F6CF9"/>
<path d="M17.5822 26.8847C18.4825 26.686 19.032 27.6079 18.4738 28.3183L9.3692 37.4229C8.62649 38.008 7.66464 37.3679 7.96259 36.447L17.1784 27.1308C17.2939 27.0218 17.4224 26.9203 17.5822 26.8847Z" fill="#0F6CF9"/>
<path d="M27.925 26.8857C28.2683 26.8113 28.5727 26.8771 28.8189 27.1319L37.8156 36.1286C38.5917 37.0159 37.5716 38.1246 36.6281 37.424L27.5753 28.3755C27.0927 27.9361 27.2708 27.0293 27.925 26.8857Z" fill="#0F6CF9"/>
<path d="M25.7692 42.4017L38.1383 42.3757C39.2276 42.4826 39.2297 43.9961 38.1383 44.104H25.9592C24.9758 44.0209 24.8398 42.7115 25.7692 42.4006V42.4017Z" fill="#0F6CF9"/>
<path d="M21.4598 42.4016C21.7944 42.3272 23.4483 42.3293 23.7592 42.4265C24.5299 42.6672 24.4792 43.9562 23.5854 44.0954C23.2216 44.1526 21.6951 44.1537 21.3777 44.0533C20.6296 43.819 20.6674 42.5776 21.4598 42.4006V42.4016Z" fill="#0F6CF9"/>
<path d="M23.078 6.20436C25.5015 5.81249 25.8567 9.26371 23.7808 9.59943C21.3572 9.9913 21.0021 6.54009 23.078 6.20436Z" fill="#0F6CF9"/>
<path d="M2.60602 38.9558L44.0638 38.9288C45.9681 39.5064 45.5395 40.7673 45.1131 42.2462C44.3045 45.0583 43.1894 47.8478 42.2837 50.6211L41.8843 50.9752L5.27243 51C4.92591 50.9892 4.63768 50.783 4.52001 50.4602L1.3689 41.0069C1.18322 40.0774 1.74457 39.2603 2.60602 38.9558ZM43.6849 40.655H3.06698L5.97196 49.2253L40.8155 49.2598L43.6849 40.655Z" stroke="#0F6CF9"/>
<path d="M27.3086 2.73047C27.952 3.54334 28.4788 4.54945 28.5878 5.59874C28.7131 6.79809 28.7195 9.70415 28.4615 10.8322C28.0168 12.7711 26.2842 14.4378 24.2968 14.6937L24.2849 15.5929C26.1039 16.4166 27.6314 17.2716 28.4777 19.1758C31.5306 26.0351 21.979 31.0397 18.0172 25.111C17.485 24.3143 16.0957 21.0337 17.675 20.8329C18.9467 20.671 18.6347 22.2654 18.9283 23.1236C20.1082 26.5727 24.9294 27.0239 26.7181 23.8491C28.4648 20.7498 26.0521 17.0503 22.5274 17.3957C21.9218 17.4551 20.6588 18.1017 20.4407 17.0848C20.1762 15.8542 21.734 15.8304 22.5566 15.6469L22.5739 14.7509C20.6113 14.3644 18.9121 12.8909 18.4188 10.9186C18.137 9.79375 18.1457 6.80456 18.2709 5.59766C18.3799 4.54837 18.9067 3.54226 19.5501 2.72939H14.1094C13.5189 2.72939 13.1151 1.1846 14.2238 1.01187L31.5684 1C33.0095 1.12954 32.4439 2.72939 31.8868 2.72939H27.3075L27.3086 2.73047ZM22.9754 2.76069C21.7135 2.90967 20.5789 3.82294 20.1773 5.02552C19.8621 5.96794 19.8535 9.84664 20.1762 10.7793C21.3702 14.237 26.5789 13.6422 26.8822 9.79051C27.11 6.89956 27.1499 2.26951 22.9754 2.76069Z" stroke="#0F6CF9"/>
<path d="M17.5822 26.8847C18.4825 26.686 19.032 27.6079 18.4738 28.3183L9.3692 37.4229C8.62649 38.008 7.66464 37.3679 7.96259 36.447L17.1784 27.1308C17.2939 27.0218 17.4224 26.9203 17.5822 26.8847Z" stroke="#0F6CF9"/>
<path d="M27.925 26.8857C28.2683 26.8113 28.5727 26.8771 28.8189 27.1319L37.8156 36.1286C38.5917 37.0159 37.5716 38.1246 36.6281 37.424L27.5753 28.3755C27.0927 27.9361 27.2708 27.0293 27.925 26.8857Z" stroke="#0F6CF9"/>
<path d="M25.7692 42.4017L38.1383 42.3757C39.2276 42.4826 39.2297 43.9961 38.1383 44.104H25.9592C24.9758 44.0209 24.8398 42.7115 25.7692 42.4006V42.4017Z" stroke="#0F6CF9"/>
<path d="M21.4598 42.4016C21.7944 42.3272 23.4483 42.3293 23.7592 42.4265C24.5299 42.6672 24.4792 43.9562 23.5854 44.0954C23.2216 44.1526 21.6951 44.1537 21.3777 44.0533C20.6296 43.819 20.6674 42.5776 21.4598 42.4006V42.4016Z" stroke="#0F6CF9"/>
<path d="M23.078 6.20436C25.5015 5.81249 25.8567 9.26371 23.7808 9.59943C21.3572 9.9913 21.0021 6.54009 23.078 6.20436Z" stroke="#0F6CF9"/>
</svg>
