<svg width="53" height="50" viewBox="0 0 53 50" fill="none" xmlns="http://www.w3.org/2000/svg">
<path d="M24.2144 17.5197C23.3255 17.9099 22.5317 18.5106 21.628 18.8806C20.7243 19.2507 18.2183 20.2161 18.0601 18.6447C17.9354 17.4178 19.055 17.6592 19.6999 17.4876C21.2794 17.0679 22.8924 15.9899 24.193 15.0218C24.0428 12.3737 24.4718 9.35157 24.2144 6.74907C23.8738 3.31527 20.0365 1.31211 16.8534 2.1957C15.8545 2.47325 14.2254 3.9897 13.3807 3.26432C12.4448 2.46118 13.7106 1.56418 14.3568 1.17133C19.2132 -1.77039 25.5378 1.09893 26.2055 6.76516V43.3972C25.1074 52.0226 12.6755 52.2345 10.9686 43.8142C8.36076 43.2752 6.1243 42.4184 4.70439 40.0425C3.18124 37.4937 3.22817 34.6753 3.44538 31.7993C-1.82531 27.0099 -0.645408 19.8152 4.25656 15.286C3.19331 12.6044 3.36225 9.82889 5.21792 7.55489C8.68255 3.30991 16.0757 4.18411 18.0749 9.34352C18.929 9.41726 21.2392 9.35291 20.9844 10.7313C20.7551 11.9782 18.9477 11.2783 18.0078 11.3802C16.6657 11.5237 15.3423 12.3335 14.511 13.37C14.1007 13.8821 13.9211 14.8529 13.063 14.8059C12.7103 14.7872 12.2424 14.4748 12.174 14.1034C11.9005 12.6137 14.7457 10.0863 16.187 9.89325C15.6292 8.48541 14.1544 7.3779 12.709 7.01589C8.39026 5.93788 4.42416 9.50844 5.8843 13.909C6.0157 14.0068 6.92074 13.252 7.21571 13.1688C8.36612 12.847 9.03116 14.094 8.22668 14.8489C7.685 15.357 6.5547 15.9135 5.88028 16.5168C3.35286 18.7761 1.28937 22.3386 2.06435 25.8233C2.58056 28.1456 4.21634 29.6205 5.59334 31.4051C4.69501 35.8083 5.59737 41.3002 10.974 41.689C11.3145 40.1914 11.93 38.9243 12.9517 37.7766C12.4086 36.6087 11.6296 35.1567 11.7986 33.8172C11.8978 33.0342 12.5494 32.5448 13.2909 32.9309C14.0324 33.3171 13.6837 33.9379 13.791 34.5707C14.1624 36.7589 16.1093 38.4523 18.2747 38.7862C19.0255 38.9015 20.4749 38.5529 20.4762 39.8039C20.4762 41.4356 17.505 40.7156 16.5517 40.3764C15.8384 40.1216 15.2538 39.5947 14.6545 39.3225C14.5419 39.2716 14.4668 39.1442 14.3166 39.2595C10.4202 43.8343 15.3718 49.6159 20.735 47.6972C26.0982 45.7785 23.6915 38.7688 24.209 34.4594C23.7237 33.0958 22.3373 32.7513 21.0461 33.2876C20.4749 33.5249 20.3207 33.9419 19.9238 34.1712C18.8485 34.7946 18.0038 33.6308 18.7305 32.5769C19.7388 31.1128 22.7167 30.6931 24.2171 31.574V27.8265C22.4633 28.0826 20.5406 28.0558 18.8351 27.5208C18.4597 27.4028 17.2677 26.7699 17.08 26.786C16.8132 26.8088 16.0194 27.3545 15.6507 27.4899C13.846 28.1563 12.3604 28.3802 10.498 27.6951C9.57285 27.3559 6.95024 25.8783 8.02154 24.6783C8.91317 23.6807 9.81955 25.1368 10.612 25.5726C12.2075 26.4508 13.7615 26.1156 15.3852 25.5498C15.4925 25.4358 14.515 24.2894 14.4198 24.0427C14.0887 23.19 14.5043 22.5115 15.4549 22.596C16.1039 22.6537 16.2259 23.3348 16.5933 23.7424C18.6018 25.9681 21.3706 26.3556 24.2184 25.8193V17.5224L24.2144 17.5197Z" fill="#0F6CF9"/>
<path d="M27.962 3.4683C28.0438 3.0607 27.7555 1.61933 28.1819 1.47989C29.3229 1.53754 30.6624 1.33508 31.7766 1.46112C32.6923 1.56436 32.7808 1.84727 32.986 2.66114C33.3855 4.24865 33.419 6.06275 33.8387 7.66367L37.2752 9.09029C37.4415 9.12649 37.5474 9.01922 37.6734 8.96559C38.9297 8.42927 40.6366 6.47706 41.9171 5.98097C42.3314 5.82141 42.7095 5.80532 43.0782 6.08287C43.7767 7.05495 47.6879 10.2125 47.8756 11.0572C47.9118 11.2208 47.9252 11.3844 47.8997 11.552L44.5839 16.4044C44.5544 16.6068 45.2771 17.8565 45.4232 18.189C45.6901 18.7964 45.7223 19.8502 46.3927 20.0286C47.8836 20.4268 50.1697 20.3503 51.5775 20.8652C52.0696 21.0462 52.1434 21.2299 52.1916 21.7233C52.4021 23.9102 52.075 26.5274 52.1138 28.7545C51.9328 29.0615 51.6768 29.1205 51.363 29.2077C49.7326 29.6582 47.7616 29.6475 46.1057 30.106L44.5866 33.5304L47.7978 38.1616C48.0244 38.7515 47.9212 38.9942 47.5712 39.4648C46.9974 40.2358 43.9926 43.2419 43.2217 43.8144C42.8744 44.0732 42.7028 44.2072 42.2268 44.1442C41.2627 44.0155 38.4618 41.3299 37.3731 40.8217L33.9379 42.2617C33.6912 42.4441 33.1522 46.9143 32.9069 47.6853C32.6615 48.4563 32.3893 48.4978 31.6479 48.5675C31.2309 48.6064 28.2342 48.6051 28.088 48.5045L27.9633 46.555H31.1745L32.0099 41.3017C32.2968 40.3404 33.7046 40.3055 34.5547 39.9663C35.5724 39.56 36.5029 38.9138 37.5165 38.6603L42.3287 41.8568C43.1372 40.8579 44.8199 39.729 45.5024 38.7287C45.5828 38.6107 45.6767 38.5531 45.5654 38.3975L42.4172 33.8965C42.3287 33.214 43.2498 31.8732 43.5475 31.1599C43.8143 30.523 44.2286 28.7961 44.6188 28.485C45.3388 27.9125 50.2676 27.6282 50.3172 27.34L50.3024 22.6069C50.104 22.4018 45.5024 22.1175 44.6939 21.5919C44.2299 21.2902 43.825 19.5231 43.5475 18.8567C43.1023 17.784 42.0981 16.7355 42.6558 15.6803C43.3557 14.357 44.7837 12.9531 45.5654 11.619L45.5681 11.3616L42.3287 8.16781C41.8661 8.07664 38.3612 11.2718 37.5179 11.3589C37.1156 11.4005 35.1648 10.301 34.5547 10.0516C33.7382 9.71912 32.2861 9.62661 31.9857 8.74034L31.1732 3.46294H27.962V3.4683Z" fill="#0F6CF9"/>
<path d="M28.631 33.5772V31.57C32.0795 31.6705 35.15 28.7999 35.3283 25.354C35.5214 21.6078 32.3732 18.3738 28.631 18.4556V16.4484C32.4402 16.4068 35.9625 19.0925 36.9936 22.7395C38.5435 28.2233 34.2208 33.5704 28.631 33.5772Z" fill="#0F6CF9"/>
</svg>
