<svg width="73" height="50" viewBox="0 0 73 50" fill="none" xmlns="http://www.w3.org/2000/svg">
<path d="M7.39496 18.7176C5.38517 20.0119 3.20978 20.9895 0.892898 21.6085L0.333374 19.2016C7.16182 17.8623 14.1816 10.2106 15.053 3.31947C15.172 2.3805 14.7797 0.486475 15.8923 0.140792C16.4824 -0.0425005 20.2013 -0.0232065 20.9586 0.065224C22.5375 0.248516 22.0246 1.52031 22.1613 2.55897C24.3527 19.2016 48.5586 19.6582 51.0411 2.39818C51.1858 1.39168 50.7083 0.243693 52.2437 0.065224C52.9721 -0.0199909 56.9289 -0.0215987 57.4225 0.190635C58.3905 0.605454 58.0239 2.28724 58.1493 3.16029C59.1847 10.3151 65.8074 17.6275 72.8625 19.208L72.3834 21.615L69.6597 20.7274L65.8058 18.7209V27.0816H63.5596V17.0326L60.836 14.1337L58.1043 10.1994V27.0816H55.6973V2.47857H53.4512V27.0783H51.0443V9.7138L49.1229 12.2108L45.5889 15.2608V27.0783H43.3428V16.3059C41.5677 16.9008 39.7573 17.3912 37.8874 17.5922V27.0783H35.4805V17.5922C33.617 17.4008 31.7632 17.0101 30.0251 16.3059V27.0783H27.6182V15.1C26.2114 14.1755 24.893 13.1401 23.7707 11.8795L22.1613 9.7138V27.0783H19.7543V2.47857H17.5082V27.0783H15.1013V10.3569L12.6895 13.8089L9.64592 17.0294V27.0783H7.39978V18.7176H7.39496Z" fill="#0F6CF9"/>
<path d="M72.8657 34.3136V36.7253H58.1027V48.8644C58.1027 49.5397 57.3293 49.8645 56.7456 49.9176C55.7247 50.0092 53.0509 50.051 52.0942 49.8999C51.734 49.8436 51.0411 49.3613 51.0411 49.0252V36.7253H22.1564V49.0252C22.1564 49.3613 21.4635 49.8436 21.1033 49.8999C20.145 50.0494 17.4728 50.0076 16.4519 49.9176C15.8682 49.8661 15.0948 49.5413 15.0948 48.8644V36.7253H0.333374V34.3136H72.8657ZM19.7511 36.7253H17.505V47.4978H19.7511V36.7253ZM55.6957 36.7253H53.4496V47.4978H55.6957V36.7253Z" fill="#0F6CF9"/>
<path d="M72.8657 29.6509H0.333374V32.0626H72.8657V29.6509Z" fill="#0F6CF9"/>
</svg>
